<svg version="1.1" xmlns="http://www.w3.org/2000/svg" xmlns:xlink="http://www.w3.org/1999/xlink" viewBox="0 0 3168 2592" width="3168" height="2592">
<style type="text/css">
	.st0{fill:none;stroke:#FFFFFF;stroke-width:2;stroke-miterlimit:10;}
	.st1{fill:#231F20;}
	.st2{font-family:'Lato-Black';}
	.st3{font-size:36px;}
	.st4{font-size:32px;}
	.st5{font-size:28px;}
</style>
<g id="Layer_1">
	<g>
		<defs>
			<rect id="SVGID_1_" width="3168" height="2592"/>
		</defs>
		<clipPath id="SVGID_2_">
			<use xlink:href="#SVGID_1_"  style="overflow:visible;"/>
		</clipPath>
		<g style="clip-path:url(#SVGID_2_);">
			<image style="overflow:visible;" width="792" height="648" xlink:href="BFA75EAB.png"  transform="matrix(4 0 0 4 3 5.001)">
			</image>
		</g>
	</g>
</g>
<g id="lots">
	<polygon id="building-1" class="st0" points="762,1412.3 871.7,1452.4 760.6,1805.3 612.6,1795.9 744.9,1407 745.3,1407 
		746.3,1406.9 747.2,1407 748.2,1407.3 	"/>
	<path id="building-8" class="st0" d="M2047.4,1447.2l-183.5,191.2l-214.6-221.9c16.3-15.8,31.1-33.3,44.1-52.2
		c6.1-8.8,9.6-19.1,10.4-29.8c0-0.4,0.1-0.8,0.1-1.2c0.1-2.2,0.4-4.4,0.9-6.5l0.7-2.2l1.7-3.9l3.3-6.8l3-6.3l2.5-5.7L2047.4,1447.2z
		"/>
	<path id="building-7" class="st0" d="M1649.3,1416.4l214.6,221.9l-46.6,48.5l-185,58.5l-86.4-259.8
		C1584.4,1468.9,1619.4,1445.5,1649.3,1416.4z"/>
	<path id="building-4" class="st0" d="M1249.4,1525.5l8,66.9l-21.6,243.2l-171.2-10.9l60-270.4l3.7-24c16.6,1.1,33.3,1.1,50,0
		L1249.4,1525.5z"/>
	<path id="building-3" class="st0" d="M1128.4,1530.3l-3.7,24l-60,270.4l-169.1-10.8l102-315.6l28.1,10.3
		C1058.8,1520.7,1093.4,1528,1128.4,1530.3z"/>
	<polygon id="building-2" class="st0" points="871.7,1452.4 997.5,1498.3 895.5,1813.9 760.6,1805.3 	"/>
	<path id="building-11" class="st0" d="M2121.9,964.2L2121.9,964.2l-316.4,38.8c0.3-32.4-9.5-64.9-29-92.2l247.6-202.2l60.4,105.7
		L2121.9,964.2z"/>
	<path id="building-9" class="st0" d="M2015.1,1189.2l32.2,258.1l-331.4-145.4l0.8-1.7l2.6-6.2l3-7.8l4.8-13.7l2.9-8.9l0.8-1.8
		c0.7-1.5,1.6-2.9,2.5-4.2l5.7-7.9c5.4-7.5,9-16.2,10.5-25.4c4.4-27.1,5.6-54.7,3.4-82.1c0-0.3,0-0.5,0-0.8L2015.1,1189.2z"/>
	<path id="building-13" class="st0" d="M1654.9,608.9l-1,236.6c-38.5-1.1-77.1,12-107.5,38.8l-298.6-278.7L1654.9,608.9z"/>
	<path id="building-6" class="st0" d="M1489,1504.5l117.9,354.7l-194.5-12.4l-43.2-329.4l63-4.3
		C1451.4,1511.8,1470.3,1508.9,1489,1504.5z"/>
	<path id="building-14" class="st0" d="M1247.8,605.7l298.6,278.7c-4.4,3.9-8.6,8-12.6,12.5c-19.2,21.2-31.4,46.2-36.9,72.2
		L941.5,851v0c4.1-2.3,8.8-3.5,13.7-3.4c33.1,0.7,60.5-25.6,61.3-58.7c0.4-19.5-8.7-38-24.4-49.6c-9.5-7-13.3-19.3-9.5-30.4l2.5-7.3
		l55.4-97.6L1247.8,605.7z"/>
	<path id="building-15" class="st0" d="M1505.2,1060.8l-166.9,68.6l-137.1-60.9l-137.1-60.9l-159.3-70.7l24.1-71
		c2.2-6.5,6.7-11.7,12.5-14.9v0l555.4,118C1490.4,999.7,1493.3,1031.7,1505.2,1060.8z"/>
	<polygon id="building-5" class="st0" points="1369.2,1517.4 1412.4,1846.8 1235.8,1835.6 1257.4,1592.4 1249.4,1525.5 	"/>
	<path id="building-10" class="st0" d="M2121.9,964.2l-49.5,48.9l-56.8,176.2l-0.4-0.1l-262.3-47.9c-0.8-12.9,3.6-25.6,12.3-35.1
		c26.7-29.5,40-66.4,40.3-103.2L2121.9,964.2z"/>
	<path id="building-12" class="st0" d="M2024.1,608.9v99.6l-247.6,202.2c-6.4-8.9-13.8-17.3-22.3-25c-28.7-26-64.4-39.3-100.2-40.3
		l1-236.6H2024.1z"/>
	<path id="building-16" class="st0" d="M1338.3,1129.4l-123,277.9c-28.8,0.8-57.6-3.8-84.7-13.7l-63.1-23v0l133.6-302L1338.3,1129.4
		z"/>
	<polygon id="building-17" class="st0" points="1201.2,1068.6 1067.6,1370.6 1067.6,1370.6 926.4,1319 1064.1,1007.7 	"/>
	<path id="building-18" class="st0" d="M1064.1,1007.7L926.4,1319l-117.7-43l-13.8-5.1l-0.6-0.2c-1-0.4-1.8-0.9-2.4-1.7c0,0,0,0,0,0
		l60.9-179.1c2.9-8.5,9.9-15,18.5-17.4c36.8-9.9,58.5-47.7,48.6-84.5c-2.3-8.7-6.3-16.8-11.8-23.9c-5.5-7.1-7-16.5-4.1-25.1l0.8-2.3
		L1064.1,1007.7z"/>
	<text transform="matrix(1 0 0 1 1178.3159 986.9277)" class="st1 st2 st3">15</text>
	<text transform="matrix(1 0 0 1 1173.0874 1258.1572)" class="st1 st2 st3">16</text>
	<text transform="matrix(1 0 0 1 1043.0791 1205.0088)" class="st1 st2 st3">17</text>
	<text transform="matrix(1 0 0 1 898.7256 1153.333)" class="st1 st2 st3">18</text>
	<text transform="matrix(1 0 0 1 1225.3091 801.4668)" class="st1 st2 st3">14</text>
	<text transform="matrix(1 0 0 1 1492.8062 719.9766)" class="st1 st2 st3">13</text>
	<text transform="matrix(1 0 0 1 1764.1934 753.8369)" class="st1 st2 st3">12</text>
	<text transform="matrix(1 0 0 1 1916.4331 901.4424)" class="st1 st2 st3">11</text>
	<text transform="matrix(1 0 0 1 1889.4326 1079.4219)" class="st1 st2 st3">10</text>
	<text transform="matrix(1 0 0 1 1853.4419 1276.0732)" class="st1 st2 st3">9</text>
	<text transform="matrix(1 0 0 1 1804.8892 1463.9854)" class="st1 st2 st3">8</text>
	<text transform="matrix(1 0 0 1 1651.3643 1575.0557)" class="st1 st2 st3">7</text>
	<text transform="matrix(1 0 0 1 1452.4658 1679.959)" class="st1 st2 st3">6</text>
	<text transform="matrix(1 0 0 1 1302.8813 1700.2285)" class="st1 st2 st3">5</text>
	<text transform="matrix(1 0 0 1 1167.9155 1700.2275)" class="st1 st2 st3">4</text>
	<text transform="matrix(1 0 0 1 1006.8789 1686.1221)" class="st1 st2 st3">3</text>
	<text transform="matrix(1 0 0 1 866.2656 1656.9453)" class="st1 st2 st3">2</text>
	<text transform="matrix(1 0 0 1 743.4414 1628.8398)" class="st1 st2 st3">1</text>
</g>
<g id="landscape">
	
		<image style="overflow:visible;" width="3458" height="2306" xlink:href="BFA75EA9.png"  transform="matrix(0.7495 0 0 0.7495 153.0513 393.6011)">
	</image>
</g>
<g id="text">
	<g>
		<text transform="matrix(1 0 0 1 690.5703 615.0645)" class="st1 st2 st4">Cherokee Lane</text>
	</g>
	<text transform="matrix(0.9978 -6.586000e-02 6.586000e-02 0.9978 1207.3848 1480.6775)" class="st1 st2 st3">Lantern Street</text>
	<text transform="matrix(0.3349 -0.9423 0.9423 0.3349 573.2574 1650.2434)" class="st1 st2 st3">Mutual Drive</text>
	<text transform="matrix(0.3349 -0.9423 0.9423 0.3349 798.3257 1011.3196)" class="st1 st2 st3">Mutual Drive</text>
	<text transform="matrix(1 0 0 1 1401.5015 1248.5264)" class="st1 st2 st5">Park</text>
	<g>
		<text transform="matrix(1 0 0 1 1060.6582 563.4668)" class="st1 st2 st5">Pond</text>
	</g>
	<g>
		<text transform="matrix(1 0 0 1 2124.6577 733.4668)" class="st1 st2 st5">Pond</text>
	</g>
	<g>
		<text transform="matrix(1 0 0 1 2091.6577 1165.4668)" class="st1 st2 st5">Pond</text>
	</g>
	<g>
		<text transform="matrix(1 0 0 1 1952.6577 1721.4668)" class="st1 st2 st5">Pond</text>
	</g>
	<g>
		<text transform="matrix(0.998 6.394000e-02 -6.394000e-02 0.998 1236.9767 1994.2416)" class="st1 st2 st3">West Ashley Greenway</text>
	</g>
</g>
</svg>
