<?xml version="1.0" encoding="utf-8"?>
<svg version="1.1" id="Layer_1" xmlns="http://www.w3.org/2000/svg" xmlns:xlink="http://www.w3.org/1999/xlink" x="0px" y="0px"
	 width="23.244px" height="18.425px" viewBox="0 0 23.244 18.425" enable-background="new 0 0 23.244 18.425" xml:space="preserve">
		<path fill="#E5E5E5" d="M14.106,6.775V4.236H5.152v7.479h3.98v2.507h9.007V6.775H14.106z M6.652,5.736h5.955v4.479H6.652V5.736z
			 M16.64,12.723h-6.007v-1.007h3.474v-3.44h2.533V12.723z"/>
		<path fill="#E5E5E5" d="M19.138,1.379V1.205h1.969v1.499h-0.256h-1.713V1.379z M2.137,2.704V1.205h1.97v0.174v1.325H2.351H2.137z
			 M2.137,17.22v-1.482h1.97v1.482H2.137z M22.106,18.22v-3.499h-1.256V3.704h1.256V0.205h-3.969v1.174H5.107V0.205h-3.97v3.499
			h1.214v11.017H1.137v3.499h3.97v-0.966h13.031v0.966H22.106z M21.106,15.737v1.482h-1.969v-1.482H21.106z M19.351,14.721h-1.213
			v1.033H5.107v-1.033H3.851V3.704h1.256V2.879h13.031v0.825h1.213V14.721z"/>
</svg>
