<svg version="1.1" xmlns="http://www.w3.org/2000/svg" xmlns:xlink="http://www.w3.org/1999/xlink"
	 viewBox="0 0 2592 1728" width="2592" height="1728">
<style type="text/css">
	.st0{fill:none;stroke:#FFFFFF;stroke-width:2;stroke-miterlimit:10;}
	.st1{font-family:'Lato-Black';}
	.st2{font-size:36px;}
	.st3{fill:#FFFFFF;}
	.st4{font-size:32px;}
	.st5{font-size:48px;}
</style>
<g id="bkg_1_">
	<image style="overflow:visible;" width="3456" height="2304" xlink:href="D6048C8B.jpg"  transform="matrix(0.75 0 0 0.75 -3 1)">
	</image>
</g>
<g id="lots">
	<polygon id="building-1" class="st0" points="609,1018.5 718.8,1058.6 607.7,1411.5 459.7,1402.1 592,1013.3 592.4,1013.2 
		593.4,1013.1 594.3,1013.2 595.2,1013.5 	"/>
	<path id="building-8" class="st0" d="M1894.4,1053.4L1711,1244.6l-214.6-221.9c16.3-15.8,31.1-33.3,44.1-52.2
		c6.1-8.8,9.6-19.1,10.4-29.8c0-0.4,0.1-0.8,0.1-1.2c0.1-2.2,0.4-4.4,0.9-6.5l0.7-2.2l1.7-3.9l3.3-6.8l3-6.3l2.5-5.7L1894.4,1053.4z
		"/>
	<path id="building-7" class="st0" d="M1496.4,1022.7l214.6,221.9l-46.6,48.5l-185,58.5l-86.4-259.8
		C1431.5,1075.2,1466.5,1051.7,1496.4,1022.7z"/>
	<path id="building-4" class="st0" d="M1096.5,1131.7l8,66.9l-21.6,243.2l-171.2-10.9l60-270.4l3.7-24c16.6,1.1,33.3,1.1,50,0
		L1096.5,1131.7z"/>
	<path id="building-3" class="st0" d="M975.5,1136.5l-3.7,24l-60,270.4l-169.1-10.8l102-315.6l28.1,10.3
		C905.9,1126.9,940.5,1134.2,975.5,1136.5z"/>
	<polygon id="building-2" class="st0" points="718.8,1058.6 844.6,1104.5 742.6,1420.1 607.7,1411.5 	"/>
	<path id="building-11" class="st0" d="M1968.9,570.4L1968.9,570.4l-316.4,38.8c0.3-32.4-9.5-64.9-29-92.2l247.6-202.2l60.4,105.7
		L1968.9,570.4z"/>
	<path id="building-9" class="st0" d="M1862.2,795.4l32.2,258.1L1563,908l0.8-1.7l2.5-6.2l3-7.8l4.8-13.7l2.9-8.9l0.8-1.8
		c0.7-1.5,1.6-2.9,2.5-4.2l5.7-7.9c5.4-7.5,9-16.2,10.5-25.4c4.4-27.1,5.5-54.7,3.4-82.1c0-0.3,0-0.5,0-0.8L1862.2,795.4z"/>
	<path id="building-13" class="st0" d="M1502,215.1l-1,236.6c-38.5-1.1-77.1,12-107.5,38.8l-298.6-278.7L1502,215.1z"/>
	<path id="building-6" class="st0" d="M1336,1110.7l117.9,354.7l-194.5-12.4l-43.2-329.4l63-4.3
		C1298.4,1118.1,1317.4,1115.2,1336,1110.7z"/>
	<path id="building-14" class="st0" d="M1094.9,211.9l298.6,278.7c-4.4,3.9-8.6,8-12.6,12.5c-19.2,21.2-31.4,46.2-36.9,72.2
		l-555.4-118v0c4.1-2.3,8.8-3.5,13.7-3.4c33.1,0.7,60.5-25.6,61.3-58.7c0.4-19.5-8.7-38-24.4-49.6c-9.5-7-13.3-19.3-9.5-30.4
		l2.5-7.3l55.4-97.6L1094.9,211.9z"/>
	<path id="building-15" class="st0" d="M1352.3,667.1l-166.9,68.6l-137.1-60.9l-137.1-60.9l-159.3-70.7l24.1-71
		c2.2-6.5,6.7-11.7,12.5-14.9v0l555.4,118C1337.5,605.9,1340.3,638,1352.3,667.1z"/>
	<polygon id="building-5" class="st0" points="1216.3,1123.6 1259.5,1453 1082.9,1441.8 1104.5,1198.6 1096.5,1131.7 	"/>
	<path id="building-10" class="st0" d="M1968.9,570.4l-49.5,48.9l-56.8,176.2l-0.4-0.1l-262.3-47.9c-0.8-12.9,3.6-25.6,12.3-35.1
		c26.7-29.5,40-66.4,40.3-103.2L1968.9,570.4z"/>
	<path id="building-12" class="st0" d="M1871.2,215.1v99.6L1623.5,517c-6.4-8.9-13.8-17.3-22.3-25c-28.7-26-64.4-39.3-100.2-40.3
		l1-236.6H1871.2z"/>
	<path id="building-16" class="st0" d="M1185.4,735.7l-123,277.9c-28.8,0.8-57.6-3.8-84.7-13.7l-63.1-23v0l133.6-302L1185.4,735.7z"
		/>
	<polygon id="building-17" class="st0" points="1048.3,674.8 914.7,976.8 914.7,976.8 773.4,925.3 911.2,613.9 	"/>
	<path id="building-18" class="st0" d="M911.2,613.9L773.4,925.3l-117.7-43l-13.8-5.1l-0.6-0.2c-1-0.4-1.8-0.9-2.4-1.7c0,0,0,0,0,0
		l60.9-179.1c2.9-8.5,9.9-15,18.5-17.4c36.8-9.9,58.5-47.7,48.6-84.5c-2.3-8.7-6.3-16.8-11.8-23.9c-5.5-7.1-7-16.5-4.1-25.1l0.8-2.3
		L911.2,613.9z"/>
	<text transform="matrix(1 0 0 1 1025.3828 593.1572)" class="st1 st2">15</text>
	<text transform="matrix(1 0 0 1 1020.1543 864.3867)" class="st1 st2">16</text>
	<text transform="matrix(1 0 0 1 890.1455 811.2383)" class="st1 st2">17</text>
	<text transform="matrix(1 0 0 1 745.793 759.5625)" class="st1 st2">18</text>
	<text transform="matrix(1 0 0 1 1072.376 407.6963)" class="st1 st2">14</text>
	<text transform="matrix(1 0 0 1 1339.873 326.2061)" class="st1 st2">13</text>
	<text transform="matrix(1 0 0 1 1611.2603 360.0664)" class="st1 st2">12</text>
	<text transform="matrix(1 0 0 1 1763.5 507.6719)" class="st1 st2">11</text>
	<text transform="matrix(1 0 0 1 1736.4995 685.6514)" class="st1 st2">10</text>
	<text transform="matrix(1 0 0 1 1700.5088 882.3027)" class="st1 st2">9</text>
	<text transform="matrix(1 0 0 1 1651.9561 1070.2148)" class="st1 st2">8</text>
	<text transform="matrix(1 0 0 1 1498.4312 1181.2852)" class="st1 st2">7</text>
	<text transform="matrix(1 0 0 1 1299.5327 1286.1885)" class="st1 st2">6</text>
	<text transform="matrix(1 0 0 1 1149.9482 1306.458)" class="st1 st2">5</text>
	<text transform="matrix(1 0 0 1 1014.9824 1306.457)" class="st1 st2">4</text>
	<text transform="matrix(1 0 0 1 853.9453 1292.3516)" class="st1 st2">3</text>
	<text transform="matrix(1 0 0 1 713.333 1263.1748)" class="st1 st2">2</text>
	<text transform="matrix(1 0 0 1 590.5078 1235.0693)" class="st3 st1 st2">1</text>
</g>
<g id="landscape">
	<image style="overflow:visible;" width="3456" height="2304" xlink:href="D6048C89.png"  transform="matrix(0.75 0 0 0.75 0 0)">
	</image>
</g>
<g id="text">
	<text transform="matrix(1 0 0 1 547.7334 223.2939)" class="st1 st4">Cherokee Lane</text>
	<text transform="matrix(0.9978 -6.586000e-02 6.586000e-02 0.9978 1014.0937 1093.5707)" class="st1 st5">Lantern Street</text>
	<text transform="matrix(0.3349 -0.9423 0.9423 0.3349 407.941 1291.3154)" class="st1 st5">Mutual Drive</text>
	<text transform="matrix(0.3349 -0.9423 0.9423 0.3349 633.0093 652.3916)" class="st1 st5">Mutual Drive</text>
	<text transform="matrix(1 0 0 1 1239.7842 854.7559)" class="st1 st2">Park</text>
	<g>
		<text transform="matrix(1 0 0 1 898.0928 169.6963)" class="st1 st2">Pond</text>
	</g>
	<g>
		<text transform="matrix(1 0 0 1 1962.0928 339.6963)" class="st1 st2">Pond</text>
	</g>
	<g>
		<text transform="matrix(1 0 0 1 1929.0928 771.6963)" class="st1 st2">Pond</text>
	</g>
	<g>
		<text transform="matrix(1 0 0 1 1790.0928 1327.6963)" class="st1 st2">Pond</text>
	</g>
	<g>
		<text transform="matrix(0.998 6.394000e-02 -6.394000e-02 0.998 1084.0436 1600.4711)" class="st1 st2">West Ashley Greenway</text>
	</g>
</g>
</svg>
