<?xml version="1.0" encoding="utf-8"?>
<!-- Generator: Adobe Illustrator 16.0.0, SVG Export Plug-In . SVG Version: 6.00 Build 0)  -->
<!DOCTYPE svg PUBLIC "-//W3C//DTD SVG 1.1//EN" "http://www.w3.org/Graphics/SVG/1.1/DTD/svg11.dtd">
<svg version="1.1" id="Layer_1" xmlns="http://www.w3.org/2000/svg" xmlns:xlink="http://www.w3.org/1999/xlink" x="0px" y="0px"
	 width="28.346px" height="18.425px" viewBox="0 0 28.346 18.425" enable-background="new 0 0 28.346 18.425" xml:space="preserve">
<g>
	<circle fill="#E5E5E5" cx="8.023" cy="5.995" r="2.851"/>
	<path fill="#E5E5E5" d="M25.819,5.164c-0.623-0.559-1.437-1.199-2.515-1.199H12.947v6.824H3.249V2.665
		c-0.003-0.689-0.562-1.246-1.25-1.246c-0.001,0-0.024,0-0.025,0c-0.69,0.002-1.228,0.563-1.225,1.254V15.76
		c0.003,0.689,0.562,1.246,1.25,1.246c0.001,0,0.024,0,0.025,0c0.69-0.002,1.228-0.563,1.225-1.254v-1.551h21.849v1.555
		c0,0.69,0.559,1.25,1.25,1.25c0.689,0,1.25-0.56,1.25-1.25c0,0,0-6.339,0-6.543C27.598,7.604,26.93,6.161,25.819,5.164z"/>
</g>
</svg>
