<?xml version="1.0" encoding="utf-8"?>
<!-- Generator: Adobe Illustrator 16.0.0, SVG Export Plug-In . SVG Version: 6.00 Build 0)  -->
<!DOCTYPE svg PUBLIC "-//W3C//DTD SVG 1.1//EN" "http://www.w3.org/Graphics/SVG/1.1/DTD/svg11.dtd">
<svg version="1.1" id="Layer_1" xmlns="http://www.w3.org/2000/svg" xmlns:xlink="http://www.w3.org/1999/xlink" x="0px" y="0px"
	 width="23.244px" height="18.425px" viewBox="0 0 23.244 18.425" enable-background="new 0 0 23.244 18.425" xml:space="preserve">
<g>
	<path fill="#E5E5E5" d="M11.623,12.789h1.917v5.375c0,0,4.083,0,4.959,0s0.958-0.208,0.958-0.958s0-5.566,0-5.566l-7.833-6.934
		L3.789,11.64c0,0,0,4.816,0,5.566s0.083,0.958,0.958,0.958s4.959,0,4.959,0v-5.375H11.623z"/>
	<polygon fill="#E5E5E5" points="19.845,6.825 19.845,0.261 16.831,0.261 16.831,4.298 12.018,0.261 11.623,0.261 11.228,0.261 
		0.163,9.539 1.667,11.146 11.623,2.581 21.578,11.146 23.082,9.539 	"/>
</g>
</svg>
