<svg id="print" xmlns="http://www.w3.org/2000/svg" viewBox="0 0 32 32">
<path fill="whitesmoke" d="M31.24,8.45h-6V4.29a.73.73,0,0,0-.23-.54L21.56.23A.74.74,0,0,0,21,0H7.49a.77.77,0,0,0-.77.76V8.45h-6A.76.76,0,0,0,0,9.22V25.55a.76.76,0,0,0,.76.76h6.1v4.93a.76.76,0,0,0,.77.76H24.37a.76.76,0,0,0,.77-.76V26.31h6.1a.76.76,0,0,0,.76-.76V9.22A.76.76,0,0,0,31.24,8.45Zm-23-6.93H20.7L23.75,4.6V8.45H8.25Zm.14,29V17.09H23.61v8.45h0v4.93Zm22.08-5.69H25.14V16.33a.76.76,0,0,0-.77-.76H7.63a.76.76,0,0,0-.77.76v8.46H1.53V10H30.47Z"></path></svg>