<?xml version="1.0" encoding="UTF-8" standalone="no"?>
<svg
   xmlns:dc="http://purl.org/dc/elements/1.1/"
   xmlns:cc="http://creativecommons.org/ns#"
   xmlns:rdf="http://www.w3.org/1999/02/22-rdf-syntax-ns#"
   xmlns:svg="http://www.w3.org/2000/svg"
   xmlns="http://www.w3.org/2000/svg"
   xmlns:sodipodi="http://sodipodi.sourceforge.net/DTD/sodipodi-0.dtd"
   xmlns:inkscape="http://www.inkscape.org/namespaces/inkscape"
   id="Layer_2"
   version="1.1"
   viewBox="0 0 693.64001 288.09"
   sodipodi:docname="catoctin-walk-logo-1.svg"
   width="693.64001"
   height="288.09"
   inkscape:version="0.92.4 (5da689c313, 2019-01-14)">
  <metadata
     id="metadata39">
    <rdf:RDF>
      <cc:Work
         rdf:about="">
        <dc:format>image/svg+xml</dc:format>
        <dc:type
           rdf:resource="http://purl.org/dc/dcmitype/StillImage" />
      </cc:Work>
    </rdf:RDF>
  </metadata>
  <sodipodi:namedview
     pagecolor="#ffffff"
     bordercolor="#666666"
     borderopacity="1"
     objecttolerance="10"
     gridtolerance="10"
     guidetolerance="10"
     inkscape:pageopacity="0"
     inkscape:pageshadow="2"
     inkscape:window-width="1733"
     inkscape:window-height="803"
     id="namedview37"
     showgrid="false"
     inkscape:zoom="0.38562092"
     inkscape:cx="347.34"
     inkscape:cy="139.86"
     inkscape:window-x="0"
     inkscape:window-y="0"
     inkscape:window-maximized="0"
     inkscape:current-layer="Layer_2" />
  <!-- Generator: Adobe Illustrator 30.2.1, SVG Export Plug-In . SVG Version: 2.1.1 Build 1)  -->
  <defs
     id="defs4">
    <style
       id="style2">
      .st0 {
        fill: #fff;
      }
    </style>
  </defs>
  <path
     d="m 241.01,199.66 h 17.91 l -26.28,87.9 c -3.29,0 -5.92,0 -9.38,0.06 l -24.01,-58.97 -23.27,54.51 -2.55,4.4 -7.69,0.16 -26.49,-88.07 c 6.34,0 11.54,-0.09 17.92,0 l 14.73,47.39 21.18,-47.34 c 4.64,0.08 8.06,-0.34 12.58,-0.34 7.48,15.45 12.15,32.01 21,47.5 l 14.36,-47.21 z"
     id="path6"
     inkscape:connector-curvature="0" />
  <path
     d="m 631.77,218.68 c -4.96,-3.88 -8.23,-7.55 -12.15,-12.24 l 15.21,-62.66 c -15.78,11.49 -25.16,24.87 -38.8,36.75 -4.91,-3.01 -9.31,-7.69 -12.82,-12.86 l 61.62,-60.89 12.69,12.65 c -4.53,20.4 -10.82,39.28 -14.51,61.49 14.13,-11.79 24.83,-24.08 37.97,-36.32 4.93,4.24 8.17,7.7 12.66,12.86 l -61.87,61.21 z"
     id="path8"
     inkscape:connector-curvature="0" />
  <polygon
     points="322.63,233.03 317.88,178.48 335.38,160.08 367.44,157.77 386.81,172.21 391.51,226.66 373.86,245.42 343.09,248.12 "
     id="polygon10"
     transform="translate(-48.66,-157.77)" />
  <path
     d="m 546.07,286.44 c -8.49,1.13 -13.58,1.13 -19.94,1.13 L 507.37,252.3 c -4.61,4.41 -8.02,9.13 -11.23,14.41 l 0.45,20.72 c -5.88,0.14 -12.09,0.14 -18.25,0.25 l 0.03,-87.9 18.19,-0.12 c -0.14,12.19 -0.79,21.61 0.55,33.89 l 27.15,-33.89 c 6.94,0.56 12.68,0.56 21.86,1.28 l -26.72,34.52 26.68,50.98 z"
     id="path12"
     inkscape:connector-curvature="0" />
  <path
     d="m 124,137.58 3.73,18.74 c -4.55,3.71 -8.75,6.49 -15.41,9.61 l -18.05,-91.6 13.74,-9.63 76.23,54.72 c -5.46,4.9 -8.84,6.73 -14.18,10.18 l -16.38,-11.2 -29.69,19.18 z"
     id="path14"
     inkscape:connector-curvature="0" />
  <path
     d="m 332.12,269.78 -35.89,-0.21 -7.19,18.03 c -5.86,-0.03 -11.22,-0.03 -17.72,-0.03 l 33.57,-87.9 h 16.89 l 35.26,87.9 h -18.2 l -6.71,-17.79 z"
     id="path16"
     inkscape:connector-curvature="0" />
  <path
     d="m 64.6,167.38 c 3.52,-4.53 7.06,-8.63 11.44,-13.51 l 10.12,9.07 -0.36,25.6 -21.12,24 -24.49,2.98 L 0,179.38 0.13,153.01 c 7.94,-8.47 14.9,-16.35 22.24,-25.05 l 21.67,-2.7 10.51,9.28 -11.54,13.1 c -3.56,-2.34 -5.52,-3.65 -8.13,-4.6 -3.22,0.72 -5.6,2.36 -7.26,5.36 l -11.98,13.04 c -1.69,4.16 0.04,8.76 4.2,11.03 l 24.42,22.17 c 1.83,2.16 4.15,3.34 6.73,3.88 2.72,-0.39 5.34,-1.7 7.02,-4.21 l 9.08,-10 c 2.01,-2.63 3.48,-5.43 3.89,-8.15 -1.65,-3.32 -2.53,-4.59 -6.36,-8.8 z"
     id="path18"
     inkscape:connector-curvature="0" />
  <path
     d="m 393.44,67.9 c 3.29,6.82 11.07,6.46 16.78,7.88 4.3,0.96 8.37,1.84 12.28,0.29 3.22,-1.98 3.89,-5.41 5.28,-11.13 l 16.95,2.44 -1.15,13.14 -21.89,14.11 -30.74,-4.8 -16.31,-18.9 8.31,-55.02 21.33,-13.35 33.27,5.17 13.85,16.55 -2.31,13.81 c -6.04,0 -11.67,-1.04 -16.8,-2.81 0.1,-4.14 0.02,-6.15 -1.02,-8.87 -1.8,-1.93 -4.07,-3.33 -7.22,-3.41 l -14.13,-2.16 c -2.86,-0.48 -5.68,-0.31 -7.93,1.08 -1.73,2.2 -2.94,4.61 -2.88,7.9 l -5.67,38.06 z"
     id="path20"
     inkscape:connector-curvature="0" />
  <path
     d="m 499.99,117.77 c -6.33,0.35 -11.75,-2.08 -16.93,-6.21 L 508.72,46.7 485.87,36.84 c 0.84,-5.86 2.69,-10.06 6.2,-15.69 l 62.11,25.65 c -0.22,5.69 -2.29,10.75 -5.75,15.74 -8.11,-2.1 -14.5,-6.39 -23.07,-8.13 L 500,117.77 Z"
     id="path22"
     inkscape:connector-curvature="0" />
  <path
     d="m 231.74,103.47 c -5.78,2.31 -10.82,4.02 -17.16,5.89 l -21.43,-66.93 -24.47,7.39 c -1.86,-5.03 -3.42,-9.72 -5.06,-16.16 l 64.98,-21.63 5.58,16.18 -23.93,8.32 21.47,66.94 z"
     id="path24"
     inkscape:connector-curvature="0" />
  <path
     d="m 450.26,270.94 c 0.84,5.75 0.77,10.89 0.22,16.85 l -65.43,0.3 0.06,-88.28 18.01,-0.07 v 71.14 c 0,0 47.14,0.06 47.14,0.06 z"
     id="path26"
     inkscape:connector-curvature="0" />
  <path
     d="m 555.85,150 c -6.67,-1.75 -10.85,-5.39 -15.03,-9.72 l 47.37,-72.43 c 5.97,3.42 10.29,5.61 14.62,10.28 L 555.86,150 Z"
     id="path28"
     inkscape:connector-curvature="0" />
  <path
     class="st0"
     d="m 324.14,66.87 c -5.36,5.54 -12.08,4.53 -18.81,4.96 -5.27,1.33 -10.43,1.46 -13.84,-3.57 l -3.63,-41.02 c 0.44,-4.24 2.93,-7.81 6.95,-8.79 l 20.22,-0.96 c 4.35,1.48 6.3,5.89 6.19,10.47 z"
     id="path30"
     inkscape:connector-curvature="0"
     style="fill:#ffffff" />
  <path
     class="st0"
     d="m 137.88,106.83 c -5.41,4.98 -10.67,8.03 -17.29,11.84 -2.77,-9.78 -4.58,-17.49 -5.65,-28.53 8.67,5.26 14.27,10.28 22.94,16.69 z"
     id="path32"
     inkscape:connector-curvature="0"
     style="fill:#ffffff" />
  <path
     class="st0"
     d="m 324.45,251.59 c -7.7,0.38 -13.82,0.83 -21.19,-0.05 3.74,-10.2 5.36,-18.13 10.61,-27.51 l 10.58,27.57 z"
     id="path34"
     inkscape:connector-curvature="0"
     style="fill:#ffffff" />
</svg>
