<svg version="1.1" xmlns="http://www.w3.org/2000/svg" xmlns:xlink="http://www.w3.org/1999/xlink" x="0px" y="0px"
	 viewBox="0 0 1678.8 1303.9" style="enable-background:new 0 0 1678.8 1303.9;" xml:space="preserve">
<style type="text/css">
	.st0{fill:#A58638;stroke:#000000;stroke-width:0.5;stroke-miterlimit:10;}
	.st1{fill:#AEBBAF;stroke:#000000;stroke-width:0.5;stroke-miterlimit:10;}
	.st2{fill:#6E7D7D;stroke:#000000;stroke-width:0.5;stroke-miterlimit:10;}
	.st3{fill:#211E1F;}
	.st4{font-family:'Avenir-Regular';}
	.st5{font-size:20px;}
	.st6{font-size:30px;}
</style>
<image style="overflow:visible;" width="6995" height="5430" id="Background" xlink:href="./KNU-2503-Lynden-Row-SP_background.avif"  transform="matrix(0.24 0 0 0.24 0 0)">
</image>
<g id="TREES">
	
		<image style="overflow:visible;" width="6995" height="5433" xlink:href="./KNU-2503-Lynden-Row-SP_Trees.avif"  transform="matrix(0.24 0 0 0.24 0 0)">
	</image>
</g>
<g id="Buildings">
	<g>
		<polygon id="Building_07" class="st0" points="348,1124.7 335.6,1124.7 335.6,944.7 452.2,944.7 452.2,1124.7 397.5,1124.7 397.5,1142.7 
			348,1142.7 		"/>
	</g>
	<g>
		<polygon id="Building_09" class="st0" points="622.1,1124.7 567.4,1124.7 567.4,944.7 682.5,944.7 682.5,1124.7 671.6,1124.7 671.6,1142.7 
			622.1,1142.7 		"/>
	</g>
	<g>
		<polygon id="Building_10" class="st0" points="737.2,1124.7 682.5,1124.7 682.5,944.7 797.6,944.7 797.6,1124.7 786.7,1124.7 786.7,1142.7 
			737.2,1142.7 		"/>
	</g>
	<g>
		<polygon id="Building_11" class="st0" points="901.9,1124.7 914.2,1124.7 914.2,1115.7 921.7,1115.7 921.7,1112.3 914.2,1112.3 914.2,944.7 
			797.6,944.7 797.6,1124.7 852.4,1124.7 852.4,1142.7 901.9,1142.7 		"/>
	</g>
	<g>
		<polygon id="Building_08" class="st0" points="507,1124.7 452.2,1124.7 452.2,944.7 567.4,944.7 567.4,1124.7 556.5,1124.7 556.5,1142.7 
			507,1142.7 		"/>
	</g>
	<g>
		<polygon id="Building_01" class="st0" points="335.8,205.9 335.8,260.6 515.8,260.6 515.8,144 348,144 348,141 344.6,141 344.6,144 335.8,144 
			335.8,156.4 317.8,156.4 317.8,205.9 		"/>
	</g>
	<g>
		<polygon id="Building_06" class="st0" points="335.8,739.1 335.8,684.4 515.8,684.4 515.8,801 348,801 348,804 344.6,804 344.6,801 335.8,801 
			335.8,788.6 317.8,788.6 317.8,739.1 		"/>
	</g>
	<g>
		<polygon id="Building_02" class="st1" points="335.8,295.9 335.8,260.6 515.8,260.6 515.8,357.4 335.8,357.4 335.8,345.4 317.8,345.4 317.8,295.9 
					"/>
	</g>
	<g>
		<polygon id="Building_05" class="st1" points="335.8,622.9 335.8,587.6 515.8,587.6 515.8,684.4 335.8,684.4 335.8,672.4 317.8,672.4 317.8,622.9 
					"/>
	</g>
	<g>
		<polygon id="Building_04" class="st0" points="335.8,527.3 335.8,472.5 515.8,472.5 515.8,587.6 335.8,587.6 335.8,576.8 317.8,576.8 317.8,527.3 
					"/>
	</g>
	<g>
		<polygon id="Building_03" class="st0" points="335.8,412.1 335.8,357.4 515.8,357.4 515.8,472.5 335.8,472.5 335.8,461.6 317.8,461.6 317.8,412.1 
					"/>
	</g>
	<g>
		<polygon id="Building_17" class="st2" points="905.6,242.3 905.6,207 912.4,207 912.4,157.5 905.6,157.5 905.6,144 895.1,144 895.1,141 891.7,141 
			891.7,144 725.6,144 725.6,242.3 		"/>
	</g>
	<g>
		<polygon id="Building_13" class="st0" points="725.6,684.4 725.6,569.3 905.6,569.3 905.6,624 912.4,624 912.4,673.5 905.6,673.5 905.6,684.4 		"/>
	</g>
	<g>
		<polygon id="Building_12" class="st0" points="725.6,684.4 725.6,801 891.7,801 891.7,804 895.1,804 895.1,801 905.6,801 905.6,788.6 912.4,788.6 
			912.4,739.1 905.6,739.1 905.6,684.4 		"/>
	</g>
	<g>
		<polygon id="Building_14" class="st0" points="725.6,569.3 725.6,454.1 905.6,454.1 905.6,508.9 912.4,508.9 912.4,558.4 905.6,558.4 905.6,569.3 
					"/>
	</g>
	<g>
		<polygon id="Building_15" class="st0" points="725.6,454.1 725.6,339 905.6,339 905.6,393.8 912.4,393.8 912.4,443.3 905.6,443.3 905.6,454.1 		"/>
	</g>
	<g>
		<polygon id="Building_16" class="st2" points="905.6,242.3 905.6,277.5 912.4,277.5 912.4,327 905.6,327 905.6,339 725.6,339 725.6,242.3 		"/>
	</g>
	<g id="MTEXT">
		<g>
			<text transform="matrix(1 0 0 1 381.2339 1043.6984)" class="st3 st4 st5">07</text>
		</g>
	</g>
	<g id="MTEXT_1_">
		<g>
			<text transform="matrix(1 0 0 1 496.0063 1043.6979)" class="st3 st4 st5">08</text>
		</g>
	</g>
	<g id="MTEXT_2_">
		<g>
			<text transform="matrix(1 0 0 1 613.0873 1043.8936)" class="st3 st4 st5">09</text>
		</g>
	</g>
	<g id="MTEXT_3_">
		<g>
			<text transform="matrix(1 0 0 1 730.6286 1043.6979)" class="st3 st4 st5">10</text>
		</g>
	</g>
	<g id="MTEXT_4_">
		<g>
			<text transform="matrix(1 0 0 1 848.5888 1043.6979)" class="st3 st4 st5">11</text>
		</g>
	</g>
	<g id="MTEXT_5_">
		<g>
			<text transform="matrix(1 0 0 1 407.5898 210.5849)" class="st3 st4 st5">01</text>
		</g>
	</g>
	<g id="MTEXT_6_">
		<g>
			<text transform="matrix(1 0 0 1 408.7963 314.4892)" class="st3 st4 st5">02</text>
		</g>
	</g>
	<g id="MTEXT_7_">
		<g>
			<text transform="matrix(1 0 0 1 408.7961 422.2572)" class="st3 st4 st5">03</text>
		</g>
	</g>
	<g id="MTEXT_8_">
		<g>
			<text transform="matrix(1 0 0 1 410.5879 535.5518)" class="st3 st4 st5">04</text>
		</g>
	</g>
	<g id="MTEXT_9_">
		<g>
			<text transform="matrix(1 0 0 1 410.6342 639.847)" class="st3 st4 st5">05</text>
		</g>
	</g>
	<g id="MTEXT_10_">
		<g>
			<text transform="matrix(1 0 0 1 411.9135 747.832)" class="st3 st4 st5">06</text>
		</g>
	</g>
	<g id="MTEXT_11_">
		<g>
			<text transform="matrix(1 0 0 1 809.5886 744.202)" class="st3 st4 st5">12</text>
		</g>
	</g>
	<g id="MTEXT_12_">
		<g>
			<text transform="matrix(1 0 0 1 808.0771 633.0145)" class="st3 st4 st5">13</text>
		</g>
	</g>
	<g id="MTEXT_13_">
		<g>
			<text transform="matrix(1 0 0 1 804.842 513.8687)" class="st3 st4 st5">14</text>
		</g>
	</g>
	<g id="MTEXT_14_">
		<g>
			<text transform="matrix(1 0 0 1 808.0771 400.8902)" class="st3 st4 st5">15</text>
		</g>
	</g>
	<g id="MTEXT_15_">
		<g>
			<text transform="matrix(1 0 0 1 808.0771 294.0146)" class="st3 st4 st5">16</text>
		</g>
	</g>
	<g id="MTEXT_16_">
		<g>
			<text transform="matrix(1 0 0 1 805.9457 202.0855)" class="st3 st4 st5">17</text>
		</g>
	</g>
</g>
<g id="Text">
	<g id="MTEXT_19_">
		<g>
			<text transform="matrix(1 0 0 1 509.7679 1286.4613)" class="st3 st4 st6">I Street, S.W.</text>
		</g>
	</g>
	<g id="MTEXT_17_">
		<g>
			<text transform="matrix(0 -1 1 0 149.5732 807.4102)" class="st3 st4 st6">6th Street, S.W.</text>
		</g>
	</g>
</g>
</svg>
