<svg xmlns="http://www.w3.org/2000/svg" width="20.41px" height="18.425px" viewBox="0 0 20.41 18.425">
<path fill="#E5E5E5" d="M19.097,9.455H2.778V3.146c0-0.779,0.635-1.414,1.414-1.414c0.479,0,0.898,0.239,1.154,0.604L5.53,6.821
	c0.01,0.193,0.127,0.364,0.305,0.439c0.064,0.027,0.131,0.04,0.195,0.04c0.121,0,0.24-0.044,0.334-0.127l4.604-4.108
	c0.143-0.126,0.199-0.321,0.15-0.504c-0.051-0.184-0.199-0.322-0.385-0.359L6.47,1.35C5.935,0.675,5.118,0.232,4.192,0.232
	c-1.605,0-2.914,1.308-2.914,2.914v6.32c-0.523,0.03-0.943,0.456-0.943,0.988c0,0.553,0.447,1,1,1H2.31
	c-0.176,0.284-0.281,0.635-0.281,1.082v1.988c0,0.642,0.207,1.066,0.553,1.351v1.316c0,0.553,0.447,1,1,1s1-0.447,1-1v-0.786
	c0.141,0.005,0.281,0.01,0.428,0.01h10.637v0.776c0,0.553,0.447,1,1,1s1-0.447,1-1v-1.057c0.609-0.255,1.002-0.728,1.002-1.61
	v-1.988c0-0.447-0.105-0.798-0.281-1.082h0.73c0.553,0,1-0.447,1-1S19.65,9.455,19.097,9.455z"/>
</svg>
